<?xml version="1.0" encoding="UTF-8"?><svg id="Lager_1" xmlns="http://www.w3.org/2000/svg" viewBox="0 0 501.4 173.4"><path d="M24.7,110.6H0c4-2.1,6.7-6.4,6.7-11.2v-30.3c0-10.6-1.1-14.5-4.5-17.9,4.3-.9,13.9-9.4,15.9-14.9v63.1c0,4.8,2.7,9.1,6.7,11.2ZM54.2,110.6h-24.8c4-2.1,6.7-6.4,6.7-11.2V33.7c0-5.7-.3-9.4-1.1-12.2-4.3,2.7-9.4,4.1-14.8,4.1s-10.6-1.6-15-4.3c-1.3-.9-4-3.4-4-6.7s3.4-7.5,7.5-7.5,7.5,3.3,7.5,7.5-3.4,7.5-7.5,7.5c3.4,1.6,7.4,2.6,11.5,2.6s10.4-1.6,14.5-4.1c6.8-4.1,11.5-11.1,12.9-19.1v97.8c0,4.8,2.7,9.1,6.7,11.2Z"/><path d="M65.2,33.7c0-10.6-1.1-14.5-4.5-17.7,4.3-.9,13.9-9.4,15.9-14.9v98.3c0,4.8,2.7,9.1,6.7,11.2h-24.7c4-2.1,6.7-6.4,6.7-11.2V33.7Z"/><path d="M225.8,110.6h-24.7c4-2.1,6.7-6.4,6.7-11.2v-36c0-9.2-4.7-18-15.2-18s-8.9,3-15,9.1c-3.5,3.4-7.4,7.5-11.5,11.9-1.6,1.7-3.1,3.5-4.8,5.4-4.3,4.7-8.8,9.6-13.2,14.3,0,1,.1,2.1.1,3,.4,3.7,1.6,6.1,3.5,7.7,0,0-10.2,6.1-15,13.9v-13.2c-4.1,3.8-9.1,8.5-14.6,10.9-3.3,1.4-7,2.8-11.5,2.8-18.2,0-17.9-12.9-17.9-21.4v-20.7c0-10.6-1.1-14.5-4.5-17.9,4.3-.9,13.9-9.4,15.9-14.9v53.4c0,4,.1,10.2,4.1,14,3.1,3.1,8.7,4.5,13.3,3.4,5.8-1.7,10.6-6.8,15.2-11.1,3.7-3.4,7.2-7.2,11.4-11.3,4.3-4.5,8.5-9.2,12.5-13.8,1.8-2,3.7-4,5.5-6,0-1.1-.1-2.1-.1-3.1-.6-5.5-1.8-8.2-4.4-10.8,4.3-.9,13.9-9.4,16-14.9v16.9c3.3-3.3,6.1-5.8,8.5-7.4,3.7-2.3,7.7-3.3,12.6-3.3,9.1,0,20.4,7.4,20.4,20.8v36c0,4.8,2.7,9.1,6.7,11.2ZM136.7,85.4v-16.3c0-10.6-1.1-14.5-4.5-17.9,4.3-.9,13.9-9.4,15.9-14.9v45.1c-3.4,4.1-7.2,7.8-11.4,11.6v-7.7ZM184.3,110.6h-24.7c4-2.1,6.7-6.4,6.7-11.2v-29.8c1.6-1.8,9.1-9.9,11.4-12v41.8c0,4.8,2.7,9.1,6.7,11.2ZM247.1,99.4v-36c0-9.2-4.5-18-15-18s-11.8,5.8-11.8,5.8c4.8-6.9,10.6-8.6,17.7-8.6s20.4,7.4,20.4,20.8v36c0,4.8,2.7,9.1,6.7,11.2h-24.7c4-2.1,6.7-6.4,6.7-11.2Z"/><path d="M276.8,69c0-10.6-1.1-14.5-4.5-17.9,4.3-.9,13.9-9.4,15.9-14.9v63.1c0,4.8,2.7,9.1,6.7,11.2h-24.7c4-2.1,6.7-6.4,6.7-11.2v-30.3ZM293.7,0c14.6,0,26.7,12,26.7,26.7s-1,8.2-2.7,11.8v61c0,4.8,2.7,9.1,6.7,11.2h-24.8c4-2.1,6.7-6.4,6.7-11.2v-30.3c0-9.9-1-13.9-4.5-17.9,5.5,0,13.1-8.8,15.5-13.6,1.6-3.4,2.4-6.9,2.4-10.9,0-14.2-11.6-25.8-25.8-25.8s-12.5,2.4-17,6.4c.7-.1,1.4-.3,2.3-.3,4.1,0,7.5,3.4,7.5,7.5s-3.4,7.5-7.5,7.5-7.5-3-7.5-7.1.4-3.7,2-5.5c4.8-5.8,12.2-9.4,20.3-9.4ZM369.7,110.6h-24.7c4-2.1,6.7-6.4,6.7-11.2v-36c0-9.2-4.5-18-15.2-18s-11.8,5.8-11.8,5.8c5-6.9,10.8-8.6,17.9-8.6s20.4,7.4,20.4,20.8v36c0,4.8,2.7,9.1,6.7,11.2Z"/><path d="M373.7,79.1c0-20.3,15.9-33.7,28.2-35.6,14.5-2.1,26.7,9.2,29.5,20.7l-44.4,20.3c.3,3.3,1,6.7,2.3,9.8,4.5,11.2,15.9,18.9,29.8,13.9,6.9-3.3,10.4-8.2,11.2-9.6l.7.6c-2.3,3.5-6.2,7.4-11.8,9.9-4,1.8-8.8,3-14.5,3-15.5,0-31.1-11.3-31.1-32.9ZM386.9,83.5l28.5-12.9c8.5-6.1,4.5-15.9,1.8-19.4-2.6-3.4-7.1-7.1-12.5-7.1-15.7.7-18.7,27.6-17.9,39.4ZM412,6.7l7.9,6.1c-7.9,10.2-25,18.1-25,18.1,10.4-7.7,17-24.2,17-24.2Z"/><path d="M480.8,59.8c-.1-1.8-.4-4.1-1.1-6.1-2-5-6.5-10.6-12.9-10.6s-16.6,7.9-12.5,17.2l-9.5-3.8-.9-.3c5-9.2,12.8-14,22.9-14s14.5,2.3,17.5,4.1c1.3.9,8.1,5.8,8.1,13.8v40.7c0,10.8,7.4,6.8,9.1,2.1-1.3,5-5.5,10.2-11.9,9.6-6.7-.7-8.5-5.7-8.5-11.8v-36.9c-1.8,4-6.4,7.7-11.6,10.9-9.1,5.5-16.3,14.7-16.3,21.1v.6c.7,8.8,12.3,15.6,21.3,7.9-5.4,6.2-12.1,8.1-15.9,8.1-5.8,0-17-4.5-17-15s8.8-14.7,19.3-19.4c9.6-4.1,20.6-11.3,20.2-18.1Z"/><path d="M73.4,154.7c-3.1,12.7-13.3,18.7-23.6,18.7s-24.8-8.6-24.8-24.9,7.4-25.7,24.5-25.7,13.4,3.5,17.1,3.5,2.8-.8,3.3-3.1h.6v18.4h-.6c-2.7-11.6-12.8-18-22.1-18s-17.3,6-17.3,18.9,11.9,26.7,23.4,26.7,16.5-4.8,19.3-14.5h.2Z"/><path d="M129.7,172.6h-10.7c-2.6,0-5.4-3-7.5-5.2l-8.9-9.3c-.9-1-2.1-2.1-3.4-2.1h-3.8v10.7c0,5,1.6,5.3,5.9,5.3v.6h-18.3v-.6c4.3,0,5.9-.3,5.9-5.3v-37.6c0-5-1.6-5.3-5.9-5.3v-.6h21.7c13.5,0,20.3,6,20.3,16.4s-5.8,15.4-17.1,16.2c1.1.5,2,1.2,2.7,2.1l4.6,4.8c3.4,3.7,10.6,9.8,14.5,9.8ZM118.2,139.6c0-9.9-4.9-15.7-13.4-15.7h-3.4c-4.3,0-5.9.4-5.9,5.4v26.1h9.3c8.5,0,13.4-5.8,13.4-15.7Z"/><path d="M180.1,159.7l-.6,12.8h-41.3v-.6c4.3,0,5.9-.3,5.9-5.3v-37.6c0-5-1.6-5.3-5.9-5.3v-.6h39.4v.2l.7,12.6h-.4c-1.4-8.3-4.5-12.2-13.3-12.2h-14v23.3h13.7c4.8,0,6.2-2.9,6.8-7.2h.4l-.4,14.7h-.5c-.6-4.9-1.6-6.9-6.4-6.9h-13.7v18.8c0,4,1,5,3.6,5.2h12.3c8.7,0,11.8-3.9,13.2-12.2h.4Z"/><path d="M242.8,172.6h-22v-.5c6.5,0,7.6-1.4,4.2-10.1l-.4-.9h-23.7l-.6,1.6c-3.3,8.7-2,9.5,4.5,9.5v.5h-15.8v-.5c4.2,0,6.2-.5,8.6-5.5l14.8-36.5-2.7-6.9h6.8l14.6,35.7c4.8,11.6,6.2,13.2,11.8,13.2v.5ZM224.3,160.2l-11.4-28.8-11.7,28.8h23.2Z"/><path d="M284,134.7h-.4c-.9-5.2-2.1-10.8-9.7-10.8h-6.2v42.8c0,5,1.6,5.3,5.9,5.3v.6h-18.3v-.6c4.3,0,5.9-.3,5.9-5.3v-42.8h-6.2c-7.5,0-8.7,5.6-9.7,10.9h-.4c0,0,.7-11.6.7-11.6h37.7l.6,11.5Z"/><path d="M311.1,123.8c-4.3,0-5.9.3-5.9,5.3v37.6c0,5,1.6,5.3,5.9,5.3v.6h-18.3v-.6c4.3,0,5.9-.3,5.9-5.3v-37.6c0-5-1.6-5.3-5.9-5.3v-.6h18.3v.6Z"/><path d="M328.1,131.2c-2.4-6-4.5-7.4-9.4-7.4v-.6h21.4v.6c-7.2,0-6.2,3.5-4.7,7.4l13.1,33,12.9-31.5c3.1-8.3,1.7-9.1-4.8-9.1v-.5h15.8v.5c-4.2,0-6.2.5-8.6,5.5l-2.7,6.5h0c0,0,0,.2,0,.2h0c0,0,0,0,0,0l-14.9,36.7h-1.2l-17-41.3Z"/><path d="M422.1,159.7l-.6,12.8h-41.3v-.6c4.3,0,5.9-.3,5.9-5.3v-37.6c0-5-1.6-5.3-5.9-5.3v-.6h39.4v.2l.7,12.6h-.4c-1.4-8.3-4.5-12.2-13.3-12.2h-14v23.3h13.7c4.8,0,6.2-2.9,6.8-7.2h.4l-.4,14.7h-.5c-.6-4.9-1.6-6.9-6.4-6.9h-13.7v18.8c0,4,1,5,3.5,5.2h12.3c8.7,0,11.8-3.9,13.2-12.2h.4Z"/><path d="M471.2,158.7c0,8.8-8.2,14.3-16.2,14.3s-13.4-3.5-17-3.5-2.9.8-3.5,3.1h-.6v-18.4h.6c3,13,12.2,18.2,20,18.2s12.5-3.8,12.5-9.8c0-16.1-30.6-9.1-30.6-28.1s7.6-11.8,13.7-11.8,9.4,3.5,13,3.5,2.9-.7,3.4-3.1h.6v18.4h-.6c-1.6-12.8-9.8-18.3-16.5-18.3s-9.2,3.1-9.2,8.2c0,14.3,30.4,8.8,30.4,27.2Z"/></svg>